<?xml version="1.0" encoding="UTF-8"?>
<svg version="1.1" xmlns="http://www.w3.org/2000/svg" width="2480" height="2023">
<path d="M0 0 C9.28686167 4.07974512 17.67461007 5.65068217 27.76077271 6.41104126 C31.95406287 6.73269922 36.13871563 7.14216029 40.32421875 7.55151367 C41.14341293 7.63085648 41.96260712 7.71019928 42.80662537 7.79194641 C84.60528506 11.98612002 124.34352299 30.69874458 154.703125 59.53588867 C155.22487305 60.02508789 155.74662109 60.51428711 156.28417969 61.01831055 C163.00326144 67.35355554 169.24104984 73.89428944 174.8203125 81.26245117 C175.6499073 82.3533757 175.6499073 82.3533757 176.4962616 83.46633911 C183.05153404 92.18986329 189.03153455 101.2911032 195.015625 110.41088867 C197.23746845 113.78554816 199.46298531 117.15775671 201.69140625 120.52807617 C202.49254852 121.74076424 202.49254852 121.74076424 203.30987549 122.97795105 C205.99118941 127.01930044 208.71832304 130.99841667 211.61328125 134.89135742 C218.76122691 144.54606407 225.12794661 154.78000274 231.69628906 164.83251953 C238.79214212 175.68417816 245.98295938 186.43961376 253.46353149 197.03013611 C260.91645128 207.61890064 267.94642036 218.48677971 275.02587891 229.3269043 C281.45305413 239.15974165 287.92603609 248.93984241 294.703125 258.53588867 C302.76208347 269.94700328 310.3879683 281.63167338 318.02587891 293.3269043 C324.45305413 303.15974165 330.92603609 312.93984241 337.703125 322.53588867 C345.76208347 333.94700328 353.3879683 345.63167338 361.02587891 357.3269043 C367.45305413 367.15974165 373.92603609 376.93984241 380.703125 386.53588867 C388.76208347 397.94700328 396.3879683 409.63167338 404.02587891 421.3269043 C410.45305413 431.15974165 416.92603609 440.93984241 423.703125 450.53588867 C431.76208347 461.94700328 439.3879683 473.63167338 447.02587891 485.3269043 C453.45305413 495.15974165 459.92603609 504.93984241 466.703125 514.53588867 C474.76208347 525.94700328 482.3879683 537.63167338 490.02587891 549.3269043 C496.45305413 559.15974165 502.92603609 568.93984241 509.703125 578.53588867 C517.76208347 589.94700328 525.3879683 601.63167338 533.02587891 613.3269043 C539.45305413 623.15974165 545.92603609 632.93984241 552.703125 642.53588867 C560.76208347 653.94700328 568.3879683 665.63167338 576.02587891 677.3269043 C582.45305413 687.15974165 588.92603609 696.93984241 595.703125 706.53588867 C603.76208347 717.94700328 611.3879683 729.63167338 619.02587891 741.3269043 C625.45305413 751.15974165 631.92603609 760.93984241 638.703125 770.53588867 C646.76208347 781.94700328 654.3879683 793.63167338 662.02587891 805.3269043 C668.45305413 815.15974165 674.92603609 824.93984241 681.703125 834.53588867 C689.76208347 845.94700328 697.3879683 857.63167338 705.02587891 869.3269043 C711.45305413 879.15974165 717.92603609 888.93984241 724.703125 898.53588867 C732.76208347 909.94700328 740.3879683 921.63167338 748.02587891 933.3269043 C754.45305413 943.15974165 760.92603609 952.93984241 767.703125 962.53588867 C775.76208347 973.94700328 783.3879683 985.63167338 791.02587891 997.3269043 C797.45305413 1007.15974165 803.92603609 1016.93984241 810.703125 1026.53588867 C818.76208347 1037.94700328 826.3879683 1049.63167338 834.02587891 1061.3269043 C840.45305413 1071.15974165 846.92603609 1080.93984241 853.703125 1090.53588867 C861.76208347 1101.94700328 869.3879683 1113.63167338 877.02587891 1125.3269043 C883.45305413 1135.15974165 889.92603609 1144.93984241 896.703125 1154.53588867 C904.76208347 1165.94700328 912.3879683 1177.63167338 920.02587891 1189.3269043 C927.15581232 1200.23488069 934.39000564 1211.04280468 941.89872742 1221.69425964 C946.22745775 1227.83684416 950.43630777 1234.03639717 954.515625 1240.34838867 C955.13961182 1241.31067383 955.76359863 1242.27295898 956.40649414 1243.2644043 C961.35025872 1250.92207829 966.16731068 1258.62958783 970.703125 1266.53588867 C971.03860352 1267.11113281 971.37408203 1267.68637695 971.71972656 1268.27905273 C1001.28971599 1319.31340889 1004.99009556 1387.52921909 990.43310547 1443.84790039 C981.06136499 1478.35721899 964.26796902 1507.74460604 939.703125 1533.53588867 C938.55650391 1534.77918945 938.55650391 1534.77918945 937.38671875 1536.04760742 C925.98067597 1548.03263714 912.18184752 1557.63081722 897.703125 1565.53588867 C896.77862549 1566.04345703 896.77862549 1566.04345703 895.83544922 1566.5612793 C853.67651739 1589.39236534 806.79696972 1592.81616416 759.73925781 1592.85473633 C757.07505637 1592.86406697 754.41086758 1592.87415729 751.74667358 1592.88517761 C746.07771576 1592.90715483 740.40877505 1592.92234277 734.73978424 1592.93254471 C726.543986 1592.94730429 718.34824769 1592.97288559 710.15248522 1593.00087599 C696.84646456 1593.04603564 683.54043511 1593.08277566 670.234375 1593.11401367 C657.33006251 1593.14432701 644.42577133 1593.17873452 631.52148438 1593.21850586 C630.72235183 1593.22096741 629.92321928 1593.22342896 629.09987059 1593.2259651 C625.08974891 1593.23834217 621.07962748 1593.25079822 617.06950617 1593.2632935 C583.94740816 1593.36639818 550.82528668 1593.45575169 517.703125 1593.53588867 C518.13142955 1594.38604522 518.5597341 1595.23620176 519.00101757 1596.11212063 C529.45083636 1616.85594696 539.88424927 1637.60796097 550.30078411 1658.36852169 C555.33864039 1668.40823209 560.38167801 1678.44527435 565.43725586 1688.47607422 C569.84675775 1697.22502477 574.24619399 1705.97895199 578.63391429 1714.73884779 C580.95474262 1719.37142651 583.28033202 1724.00146414 585.6180172 1728.62556267 C587.8243024 1732.99013804 590.01693114 1737.36131704 592.19986534 1741.73761559 C592.9975067 1743.33099393 593.79984286 1744.92203346 594.60756302 1746.51032639 C601.29135815 1759.66440916 606.3601316 1773.16344326 608.515625 1787.84838867 C608.63180176 1788.6234375 608.74797852 1789.39848633 608.86767578 1790.19702148 C611.3841404 1808.69062747 610.77410151 1827.87731303 601.078125 1844.28588867 C594.09875967 1850.89791898 584.88700112 1852.80559317 575.703125 1854.53588867 C574.506875 1854.76276367 573.310625 1854.98963867 572.078125 1855.22338867 C536.8714022 1858.48327041 508.96501572 1842.65702438 479.703125 1825.53588867 C477.67206081 1824.35067436 475.6408171 1823.16576764 473.609375 1821.98120117 C470.65233462 1820.25654527 467.69554932 1818.53146297 464.73974609 1816.8046875 C453.088604 1810.00039762 441.39494151 1803.26995865 429.703125 1796.53588867 C416.0290032 1788.66008143 402.36575526 1780.76733021 388.74169922 1772.80517578 C381.41000021 1768.5234395 374.06029519 1764.2736886 366.703125 1760.03588867 C358.35514041 1755.22737023 350.02069316 1750.39683184 341.703125 1745.53588867 C329.06569046 1738.15173974 316.38637202 1730.84098732 303.703125 1723.53588867 C290.02758186 1715.65926278 276.36351542 1707.76468775 262.73730469 1699.80297852 C251.08653315 1693.00001244 239.39408756 1686.26946681 227.703125 1679.53588867 C214.02758186 1671.65926278 200.36351542 1663.76468775 186.73730469 1655.80297852 C175.08653315 1649.00001244 163.39408756 1642.26946681 151.703125 1635.53588867 C138.93940665 1628.1844414 126.17863324 1620.82834698 113.453125 1613.41088867 C112.59315918 1612.91000732 111.73319336 1612.40912598 110.84716797 1611.89306641 C109.96947754 1611.38074463 109.09178711 1610.86842285 108.1875 1610.34057617 C107.25280014 1609.81770281 106.31810029 1609.29482945 105.35507619 1608.75611144 C102.57567453 1607.13974971 100.05177912 1605.31588969 97.48891509 1603.37640876 C81.45449014 1591.85305115 66.11310123 1591.68017124 47.20906715 1591.92389168 C42.82544775 1591.96569073 38.44227 1591.93088776 34.05861151 1591.90631694 C26.3950616 1591.87365127 18.7327899 1591.88862299 11.06933212 1591.93575859 C-0.32694302 1592.00561854 -11.7223379 1592.00020051 -23.11876511 1591.97984161 C-42.3011213 1591.94763885 -61.48294644 1591.97535545 -80.66521072 1592.03733253 C-99.66555147 1592.09846332 -118.66561466 1592.1316164 -137.66605759 1592.12817955 C-138.84996736 1592.12797707 -140.03387713 1592.12777459 -141.25366296 1592.12756597 C-147.26732272 1592.12637942 -153.28098221 1592.12467605 -159.29464178 1592.1227599 C-201.86174091 1592.10998769 -244.42859158 1592.15584346 -286.99560547 1592.23779297 C-328.26904463 1592.31705847 -369.54240811 1592.37488734 -410.81591797 1592.39990234 C-412.7225389 1592.40107521 -412.7225389 1592.40107521 -414.66767743 1592.40227177 C-441.23569091 1592.41853083 -467.80370601 1592.43081213 -494.37172205 1592.44199199 C-505.43684553 1592.44665233 -516.50196889 1592.45157471 -527.56709223 1592.45655772 C-531.20725881 1592.45817139 -534.84742541 1592.45971031 -538.48759203 1592.46123775 C-570.51728526 1592.47492813 -602.54687659 1592.5102835 -634.57652553 1592.56475194 C-649.01161307 1592.58895907 -663.44670967 1592.60638159 -677.88180764 1592.62305007 C-689.20271654 1592.63647838 -700.52358004 1592.65602991 -711.84446224 1592.68410016 C-719.42560202 1592.70238219 -727.00673021 1592.71329555 -734.58789013 1592.71851858 C-738.89457284 1592.72172825 -743.20118257 1592.72805532 -747.50783928 1592.74378572 C-807.38192506 1592.95508975 -870.37540003 1586.8297101 -917.296875 1545.53588867 C-918.12445312 1544.81788086 -918.95203125 1544.09987305 -919.8046875 1543.36010742 C-952.96675675 1514.09640054 -973.84027218 1476.7366791 -983.296875 1433.53588867 C-983.46268066 1432.77904785 -983.62848633 1432.02220703 -983.79931641 1431.24243164 C-985.18901167 1424.67608422 -986.25988139 1418.1893063 -986.56640625 1411.47729492 C-987.29458903 1396.98737944 -991.41131881 1385.62000631 -997.12402344 1372.35668945 C-999.8014634 1365.91723456 -1001.70365364 1359.31615057 -1003.296875 1352.53588867 C-1003.45768555 1351.88249512 -1003.61849609 1351.22910156 -1003.78417969 1350.5559082 C-1012.94838854 1311.54661095 -1005.08003645 1267.26039534 -984.81747437 1233.03720093 C-981.03867516 1226.98816322 -977.01282078 1221.10766503 -972.984375 1215.22338867 C-971.72646313 1213.36482506 -970.46989088 1211.50535413 -969.21459961 1209.64501953 C-966.72212933 1205.95393959 -964.22367261 1202.26704415 -961.71972656 1198.58374023 C-957.6068622 1192.52779928 -953.55418772 1186.43282738 -949.50924683 1180.3314209 C-939.69840241 1165.54498196 -929.75602103 1150.84637974 -919.82055664 1136.14355469 C-913.96107218 1127.46989933 -908.12002183 1118.78480724 -902.3203125 1110.07104492 C-894.59079697 1098.45785687 -886.78412686 1086.89727804 -878.97412109 1075.33813477 C-872.38794373 1065.58861518 -865.81592395 1055.83045584 -859.296875 1046.03588867 C-851.57518679 1034.43441208 -843.77624069 1022.88560618 -835.97412109 1011.33813477 C-829.38794373 1001.58861518 -822.81592395 991.83045584 -816.296875 982.03588867 C-808.57518679 970.43441208 -800.77624069 958.88560618 -792.97412109 947.33813477 C-786.38794373 937.58861518 -779.81592395 927.83045584 -773.296875 918.03588867 C-765.57518679 906.43441208 -757.77624069 894.88560618 -749.97412109 883.33813477 C-743.38794373 873.58861518 -736.81592395 863.83045584 -730.296875 854.03588867 C-722.57518679 842.43441208 -714.77624069 830.88560618 -706.97412109 819.33813477 C-700.38794373 809.58861518 -693.81592395 799.83045584 -687.296875 790.03588867 C-679.57518679 778.43441208 -671.77624069 766.88560618 -663.97412109 755.33813477 C-657.38794373 745.58861518 -650.81592395 735.83045584 -644.296875 726.03588867 C-636.57518679 714.43441208 -628.77624069 702.88560618 -620.97412109 691.33813477 C-614.38794373 681.58861518 -607.81592395 671.83045584 -601.296875 662.03588867 C-593.57518679 650.43441208 -585.77624069 638.88560618 -577.97412109 627.33813477 C-571.38794373 617.58861518 -564.81592395 607.83045584 -558.296875 598.03588867 C-550.57518679 586.43441208 -542.77624069 574.88560618 -534.97412109 563.33813477 C-528.38794373 553.58861518 -521.81592395 543.83045584 -515.296875 534.03588867 C-507.57518679 522.43441208 -499.77624069 510.88560618 -491.97412109 499.33813477 C-485.38794373 489.58861518 -478.81592395 479.83045584 -472.296875 470.03588867 C-464.57518679 458.43441208 -456.77624069 446.88560618 -448.97412109 435.33813477 C-442.38794373 425.58861518 -435.81592395 415.83045584 -429.296875 406.03588867 C-421.57518679 394.43441208 -413.77624069 382.88560618 -405.97412109 371.33813477 C-398.79836778 360.71586579 -391.64896604 350.07716569 -384.5463562 339.40583801 C-378.65647532 330.56236222 -372.71295828 321.75541037 -366.76464844 312.95117188 C-354.48308661 294.77550877 -354.48308661 294.77550877 -342.296875 276.53588867 C-333.61095585 263.45829475 -324.81226189 250.4565514 -316.0234375 237.44799805 C-310.09140849 228.66486701 -304.1771506 219.87069914 -298.3046875 211.04760742 C-290.58039018 199.44222702 -282.77886941 187.8894968 -274.97412109 176.33813477 C-268.38794373 166.58861518 -261.81592395 156.83045584 -255.296875 147.03588867 C-247.57518679 135.43441208 -239.77624069 123.88560618 -231.97412109 112.33813477 C-224.63349995 101.47181191 -217.31549552 90.59133441 -210.05334473 79.67236328 C-180.22334503 34.83242065 -145.10177246 2.36760794 -90.95605469 -8.94726562 C-61.74292611 -14.24883407 -27.26615251 -12.10864311 0 0 Z " fill="#067385" transform="translate(1246.296875,107.464111328125)"/>
<path d="M0 0 C1.22332031 0.44085938 2.44664062 0.88171875 3.70703125 1.3359375 C25.86833642 9.73634846 45.15481311 22.37158616 62 39 C62.56356201 39.54237305 63.12712402 40.08474609 63.70776367 40.64355469 C73.42071578 50.11012038 81.08926359 61.4562459 88.52734375 72.7421875 C89.75787221 74.59848268 90.98892669 76.45442925 92.22045898 78.31005859 C92.84556366 79.25258484 93.47066833 80.19511108 94.11471558 81.16619873 C97.12921637 85.69734324 100.17274701 90.20874515 103.21875 94.71875 C103.81783676 95.60621918 104.41692352 96.49368835 105.03416443 97.40805054 C106.85562248 100.10569643 108.67770227 102.80292126 110.5 105.5 C118.28115138 117.01643755 126.04053677 128.54618429 133.74145508 140.11645508 C140.28424245 149.94024846 146.8920604 159.71996617 153.5 169.5 C161.28115138 181.01643755 169.04053677 192.54618429 176.74145508 204.11645508 C183.28424245 213.94024846 189.8920604 223.71996617 196.5 233.5 C203.69191506 244.14434254 210.87442576 254.79416102 217.9921875 265.48828125 C225.15676864 276.25274308 232.3863307 286.9727694 239.625 297.6875 C246.93199849 308.50421237 254.22900474 319.32661945 261.46002197 330.19430542 C268.32754005 340.50750975 275.27666495 350.76590762 282.21289062 361.03295898 C289.45006924 371.74710481 296.66372724 382.47596983 303.82728577 393.23950195 C307.22884864 398.34895037 310.64244526 403.44997543 314.07043457 408.54173279 C316.27366081 411.81490571 318.47208623 415.09128942 320.67016602 418.36791992 C321.77198385 420.00795292 322.87585194 421.64661023 323.98168945 423.28393555 C343.61886955 452.373394 357.49307694 481.27964452 359 517 C359.06574219 518.48137451 359.06574219 518.48137451 359.1328125 519.99267578 C359.92030866 540.8580427 357.05146016 560.35516963 350 580 C349.57074219 581.20398438 349.14148437 582.40796875 348.69921875 583.6484375 C333.16159542 624.70277745 302.81295138 658.10862539 262.96044922 676.70507812 C257.62338339 679.03954927 252.19386554 681.0413391 246.6875 682.9375 C245.18050537 683.46766724 245.18050537 683.46766724 243.64306641 684.00854492 C225.07733133 690.04899498 205.83631977 691.60048414 186.43806458 691.49447632 C184.27916885 691.49766345 182.12027513 691.5026014 179.96138686 691.50910914 C174.10443246 691.52178267 168.24775996 691.50992096 162.39082444 691.49358058 C156.04517388 691.48030544 149.69955178 691.4903496 143.35389709 691.49734497 C132.37992382 691.50622578 121.40604079 691.50054513 110.43207741 691.48405075 C98.92192642 691.46675521 87.41181214 691.457012 75.90164757 691.45738602 C75.18267192 691.45740131 74.46369627 691.4574166 73.72293348 691.45743235 C70.80369459 691.45751418 67.88445571 691.45764543 64.96521683 691.45784398 C37.63841352 691.45965192 10.31166587 691.43983037 -17.01511813 691.40898465 C-41.24731016 691.38173272 -65.47946269 691.36926268 -89.71166992 691.37060547 C-91.26826877 691.37068629 -92.82486762 691.37076701 -94.38146647 691.37084763 C-95.1510525 691.37088833 -95.92063853 691.37092903 -96.71354535 691.37097096 C-100.5882594 691.37117258 -104.46297344 691.37135374 -108.33768749 691.37151146 C-109.48454348 691.3715616 -109.48454348 691.3715616 -110.65456827 691.37161275 C-130.95805754 691.37234445 -151.26154191 691.36325145 -171.56502706 691.35085833 C-172.28801773 691.35041779 -173.01100841 691.34997724 -173.75590789 691.34952335 C-176.66261938 691.3477471 -179.56933086 691.34597023 -182.47604231 691.34414144 C-192.55165838 691.33784387 -202.62727056 691.33480583 -212.70288846 691.33391846 C-225.69041544 691.33272 -238.67790498 691.32442351 -251.66541883 691.30505554 C-257.92019603 691.29586564 -264.17493361 691.28971145 -270.42971802 691.29224396 C-276.1680559 691.2944546 -281.90630657 691.28727352 -287.6446263 691.27294691 C-289.70752285 691.26935881 -291.77042852 691.26902136 -293.83332529 691.27248149 C-310.57755662 691.29743232 -328.06422296 691.26493355 -344.3125 686.75 C-345.13113525 686.53166504 -345.94977051 686.31333008 -346.79321289 686.08837891 C-367.87924697 680.29571513 -387.87650123 670.684576 -405 657 C-405.5779834 656.54012695 -406.1559668 656.08025391 -406.75146484 655.60644531 C-436.48397457 631.66808779 -458.02866878 597.46976032 -466 560 C-466.27972656 558.80375 -466.55945313 557.6075 -466.84765625 556.375 C-475.48871648 515.86385091 -465.62346232 471.67997204 -443.4140625 437.16015625 C-436.95778141 427.33886615 -430.33560818 417.62858975 -423.71156311 407.92012024 C-417.72186757 399.13550434 -411.77917917 390.31918363 -405.83587646 381.50314331 C-403.99174465 378.76795485 -402.14659865 376.03345305 -400.30126953 373.29907227 C-394.85545705 365.22639656 -389.42218186 357.14590699 -384.02734375 349.0390625 C-376.66715105 337.97919012 -369.22410932 326.97534208 -361.78710938 315.96704102 C-354.57576677 305.29114364 -347.39048513 294.59898319 -340.25222778 283.87406921 C-333.10996694 273.15017334 -325.89062993 262.47836334 -318.67724609 251.80224609 C-312.09106873 242.05272651 -305.51904895 232.29456717 -299 222.5 C-291.27831179 210.89852341 -283.47936569 199.34971751 -275.67724609 187.80224609 C-269.09369703 178.05661718 -262.5242536 168.30238148 -256.0078125 158.51171875 C-248.84323136 147.74725692 -241.6136693 137.0272306 -234.375 126.3125 C-226.96400829 115.34184416 -219.56353811 104.36503206 -212.22659302 93.34468079 C-207.97554364 86.95977887 -203.71159865 80.58388832 -199.41650391 74.22851562 C-198.62995154 73.06300897 -197.84515761 71.89631394 -197.06201172 70.72851562 C-189.48723239 59.43622467 -181.27066574 48.96103447 -172 39 C-171.06414062 37.98292969 -171.06414062 37.98292969 -170.109375 36.9453125 C-151.16020367 17.12033914 -124.36668623 2.81647004 -98 -4 C-96.92105469 -4.29261719 -95.84210938 -4.58523438 -94.73046875 -4.88671875 C-63.95694539 -12.6654762 -29.74963413 -10.99932418 0 0 Z " fill="#FEFEFE" transform="translate(1241,380)"/>
<path d="M0 0 C52.4880056 1.63496473 102.38426683 17.32074902 141 54 C141.78262207 54.73379883 141.78262207 54.73379883 142.58105469 55.48242188 C149.30013644 61.81766687 155.53792484 68.35840077 161.1171875 75.7265625 C161.9467823 76.81748703 161.9467823 76.81748703 162.7931366 77.93045044 C169.34840904 86.65397462 175.32840955 95.75521453 181.3125 104.875 C183.53434345 108.24965949 185.75986031 111.62186804 187.98828125 114.9921875 C188.5223761 115.80064621 189.05647095 116.60910492 189.60675049 117.44206238 C192.28806441 121.48341177 195.01519804 125.462528 197.91015625 129.35546875 C205.05810191 139.0101754 211.42482161 149.24411407 217.99316406 159.29663086 C225.08901712 170.14828948 232.27983438 180.90372509 239.76040649 191.49424744 C247.21332628 202.08301197 254.24329536 212.95089104 261.32275391 223.79101562 C267.74992913 233.62385298 274.22291109 243.40395374 281 253 C289.05895847 264.41111461 296.6848433 276.09578471 304.32275391 287.79101562 C310.74992913 297.62385298 317.22291109 307.40395374 324 317 C332.05895847 328.41111461 339.6848433 340.09578471 347.32275391 351.79101562 C353.74992913 361.62385298 360.22291109 371.40395374 367 381 C375.05895847 392.41111461 382.6848433 404.09578471 390.32275391 415.79101562 C396.74992913 425.62385298 403.22291109 435.40395374 410 445 C418.05895847 456.41111461 425.6848433 468.09578471 433.32275391 479.79101562 C439.74992913 489.62385298 446.22291109 499.40395374 453 509 C461.05895847 520.41111461 468.6848433 532.09578471 476.32275391 543.79101562 C482.74992913 553.62385298 489.22291109 563.40395374 496 573 C504.05895847 584.41111461 511.6848433 596.09578471 519.32275391 607.79101562 C525.74992913 617.62385298 532.22291109 627.40395374 539 637 C547.05895847 648.41111461 554.6848433 660.09578471 562.32275391 671.79101562 C568.74992913 681.62385298 575.22291109 691.40395374 582 701 C590.05895847 712.41111461 597.6848433 724.09578471 605.32275391 735.79101562 C611.74992913 745.62385298 618.22291109 755.40395374 625 765 C633.05895847 776.41111461 640.6848433 788.09578471 648.32275391 799.79101562 C654.74992913 809.62385298 661.22291109 819.40395374 668 829 C676.05895847 840.41111461 683.6848433 852.09578471 691.32275391 863.79101562 C697.74992913 873.62385298 704.22291109 883.40395374 711 893 C719.05895847 904.41111461 726.6848433 916.09578471 734.32275391 927.79101562 C740.74992913 937.62385298 747.22291109 947.40395374 754 957 C762.05895847 968.41111461 769.6848433 980.09578471 777.32275391 991.79101562 C783.74992913 1001.62385298 790.22291109 1011.40395374 797 1021 C805.05895847 1032.41111461 812.6848433 1044.09578471 820.32275391 1055.79101562 C826.74992913 1065.62385298 833.22291109 1075.40395374 840 1085 C848.05895847 1096.41111461 855.6848433 1108.09578471 863.32275391 1119.79101562 C869.74992913 1129.62385298 876.22291109 1139.40395374 883 1149 C891.05895847 1160.41111461 898.6848433 1172.09578471 906.32275391 1183.79101562 C913.45268732 1194.69899202 920.68688064 1205.50691601 928.19560242 1216.15837097 C932.52433275 1222.30095549 936.73318277 1228.50050849 940.8125 1234.8125 C941.43648682 1235.77478516 942.06047363 1236.73707031 942.70336914 1237.72851562 C947.64713372 1245.38618962 952.46418568 1253.09369916 957 1261 C957.33547852 1261.57524414 957.67095703 1262.15048828 958.01660156 1262.74316406 C987.58659099 1313.77752022 991.28697056 1381.99333041 976.72998047 1438.31201172 C967.35823999 1472.82133032 950.56484402 1502.20871736 926 1528 C924.85337891 1529.24330078 924.85337891 1529.24330078 923.68359375 1530.51171875 C912.27755097 1542.49674847 898.47872252 1552.09492855 884 1560 C883.07550049 1560.50756836 883.07550049 1560.50756836 882.13232422 1561.02539062 C839.97339239 1583.85647667 793.09384472 1587.28027549 746.03613281 1587.31884766 C743.37193137 1587.3281783 740.70774258 1587.33826862 738.04354858 1587.34928894 C732.37459076 1587.37126616 726.70565005 1587.3864541 721.03665924 1587.39665604 C712.840861 1587.41141562 704.64512269 1587.43699692 696.44936022 1587.46498732 C683.14333956 1587.51014696 669.83731011 1587.54688699 656.53125 1587.578125 C643.62693751 1587.60843834 630.72264633 1587.64284585 617.81835938 1587.68261719 C617.01922683 1587.68507874 616.22009428 1587.68754028 615.39674559 1587.69007643 C611.38662391 1587.70245349 607.37650248 1587.71490955 603.36638117 1587.72740483 C570.24428316 1587.83050951 537.12216168 1587.91986302 504 1588 C504.42830455 1588.85015655 504.8566091 1589.70031309 505.29789257 1590.57623196 C515.74771136 1611.32005829 526.18112427 1632.07207229 536.59765911 1652.83263302 C541.63551539 1662.87234342 546.67855301 1672.90938568 551.73413086 1682.94018555 C556.14363275 1691.6891361 560.54306899 1700.44306332 564.93078929 1709.20295912 C567.25161762 1713.83553783 569.57720702 1718.46557547 571.9148922 1723.089674 C574.1211774 1727.45424937 576.31380614 1731.82542837 578.49674034 1736.20172691 C579.2943817 1737.79510526 580.09671786 1739.38614479 580.90443802 1740.97443771 C587.58823315 1754.12852049 592.6570066 1767.62755458 594.8125 1782.3125 C594.92867676 1783.08754883 595.04485352 1783.86259766 595.16455078 1784.66113281 C597.6810154 1803.1547388 597.07097651 1822.34142436 587.375 1838.75 C580.39563467 1845.36203031 571.18387612 1847.2697045 562 1849 C560.80375 1849.226875 559.6075 1849.45375 558.375 1849.6875 C523.1682772 1852.94738174 495.26189072 1837.12113571 466 1820 C463.96893581 1818.81478568 461.9376921 1817.62987896 459.90625 1816.4453125 C456.94920962 1814.72065659 453.99242432 1812.9955743 451.03662109 1811.26879883 C439.385479 1804.46450895 427.69181651 1797.73406998 416 1791 C402.3258782 1783.12419276 388.66263026 1775.23144154 375.03857422 1767.26928711 C367.70687521 1762.98755083 360.35717019 1758.73779993 353 1754.5 C344.65201541 1749.69148156 336.31756816 1744.86094317 328 1740 C315.36256546 1732.61585107 302.68324702 1725.30509865 290 1718 C276.32445686 1710.12337411 262.66039042 1702.22879908 249.03417969 1694.26708984 C237.38340815 1687.46412377 225.69096256 1680.73357814 214 1674 C200.32445686 1666.12337411 186.66039042 1658.22879908 173.03417969 1650.26708984 C161.38340815 1643.46412377 149.69096256 1636.73357814 138 1630 C125.23628165 1622.64855273 112.47550824 1615.29245831 99.75 1607.875 C98.89003418 1607.37411865 98.03006836 1606.8732373 97.14404297 1606.35717773 C96.26635254 1605.84485596 95.38866211 1605.33253418 94.484375 1604.8046875 C93.54967514 1604.28181414 92.61497529 1603.75894078 91.65195119 1603.22022277 C88.87254953 1601.60386104 86.34865412 1599.78000101 83.78579009 1597.84052008 C67.75136514 1586.31716248 52.40997623 1586.14428257 33.50594215 1586.38800301 C29.12232275 1586.42980206 24.739145 1586.39499909 20.35548651 1586.37042826 C12.6919366 1586.3377626 5.0296649 1586.35273432 -2.63379288 1586.39986992 C-14.03006802 1586.46972987 -25.4254629 1586.46431184 -36.82189011 1586.44395294 C-56.0042463 1586.41175017 -75.18607144 1586.43946677 -94.36833572 1586.50144386 C-113.36867647 1586.56257465 -132.36873966 1586.59572772 -151.36918259 1586.59229088 C-152.55309236 1586.5920884 -153.73700213 1586.59188591 -154.95678796 1586.5916773 C-160.97044772 1586.59049075 -166.98410721 1586.58878738 -172.99776678 1586.58687123 C-215.56486591 1586.57409902 -258.13171658 1586.61995479 -300.69873047 1586.7019043 C-341.97216963 1586.78116979 -383.24553311 1586.83899866 -424.51904297 1586.86401367 C-426.4256639 1586.86518654 -426.4256639 1586.86518654 -428.37080243 1586.8663831 C-454.93881591 1586.88264216 -481.50683101 1586.89492346 -508.07484705 1586.90610332 C-519.13997053 1586.91076366 -530.20509389 1586.91568604 -541.27021723 1586.92066905 C-544.91038381 1586.92228272 -548.55055041 1586.92382164 -552.19071703 1586.92534908 C-584.22041026 1586.93903946 -616.25000159 1586.97439483 -648.27965053 1587.02886327 C-662.71473807 1587.0530704 -677.14983467 1587.07049292 -691.58493264 1587.0871614 C-702.90584154 1587.10058971 -714.22670504 1587.12014124 -725.54758724 1587.14821149 C-733.12872702 1587.16649352 -740.70985521 1587.17740688 -748.29101513 1587.18262991 C-752.59769784 1587.18583958 -756.90430757 1587.19216665 -761.21096428 1587.20789704 C-821.08505006 1587.41920108 -884.07852503 1581.29382143 -931 1540 C-931.82757812 1539.28199219 -932.65515625 1538.56398438 -933.5078125 1537.82421875 C-971.2422634 1504.5256359 -992.6391263 1460.60349963 -1000 1411 C-1000.13148438 1410.13503906 -1000.26296875 1409.27007813 -1000.3984375 1408.37890625 C-1001.20414525 1402.27077051 -1001.09366449 1396.15063497 -1001 1390 C-998.36029876 1392.49001775 -996.59989654 1395.17152435 -994.74145508 1398.29125977 C-989.58091288 1406.95305478 -983.86113673 1414.62443877 -977 1422 C-976.15477783 1422.91096436 -976.15477783 1422.91096436 -975.29248047 1423.84033203 C-948.28276127 1452.61203345 -910.67736473 1472.07076039 -871 1475 C-866.00009564 1475.14225977 -861.00131721 1475.13550653 -855.99983883 1475.12749195 C-854.4722336 1475.1287272 -852.94462867 1475.13040152 -851.41702434 1475.13247326 C-847.21746965 1475.13690876 -843.01793688 1475.1351497 -838.8183816 1475.13239995 C-834.25023496 1475.1305231 -829.68209281 1475.13447544 -825.11394745 1475.13771313 C-817.10707166 1475.14260503 -809.10020177 1475.1438595 -801.09332466 1475.14274788 C-789.18695453 1475.1411377 -777.28059138 1475.14530063 -765.37422267 1475.15082836 C-746.57254688 1475.15947964 -727.77087201 1475.16484127 -708.96919457 1475.16802987 C-679.130323 1475.17317109 -649.2914634 1475.18863471 -619.45259773 1475.20760635 C-613.10343339 1475.21162781 -606.75426898 1475.2155487 -600.40510458 1475.21947271 C-599.13944334 1475.22025536 -597.8737821 1475.22103802 -596.56976749 1475.22184439 C-594.00503471 1475.22342996 -591.44030194 1475.22501479 -588.87556916 1475.22659888 C-586.30137692 1475.22819015 -583.72718468 1475.2297844 -581.15299244 1475.23138161 C-551.46735269 1475.24979544 -521.78171216 1475.26661263 -492.09607065 1475.28192069 C-490.08372651 1475.28295924 -488.07138238 1475.28400269 -486.05903824 1475.28504662 C-455.05885015 1475.30109349 -424.05866347 1475.31413922 -393.05847168 1475.32006836 C-392.39149173 1475.32019645 -391.72451178 1475.32032455 -391.03732032 1475.32045652 C-380.28265639 1475.32251271 -369.52799243 1475.3244116 -358.77332846 1475.32627667 C-313.80208244 1475.33407675 -268.83085838 1475.35486397 -223.85962639 1475.39216815 C-217.60733082 1475.39734202 -211.35503513 1475.40234932 -205.10273933 1475.40724754 C-203.87221014 1475.4082145 -202.64168095 1475.40918146 -201.373863 1475.41017772 C-181.54723958 1475.42533708 -161.72063982 1475.42620888 -141.89401219 1475.42159041 C-121.98102321 1475.4172133 -102.06808293 1475.42707902 -82.15510827 1475.45167748 C-70.3168132 1475.46584862 -58.47863731 1475.46877755 -46.64034019 1475.45583495 C-38.7393603 1475.44828379 -30.8384788 1475.45512937 -22.93751759 1475.47381646 C-18.43149906 1475.48405472 -13.92572021 1475.48789034 -9.41970544 1475.47419123 C-5.32169072 1475.46185317 -1.22413018 1475.46784268 2.8738471 1475.48854202 C4.34826096 1475.49276039 5.82271299 1475.49026207 7.29709904 1475.48027276 C15.23483444 1475.43035764 21.28619553 1475.51370121 28 1480 C28.33 1480.66 28.66 1481.32 29 1482 C30.48867276 1482.92866164 32.01554706 1483.79705336 33.5625 1484.625 C34.38878906 1485.07101562 35.21507812 1485.51703125 36.06640625 1485.9765625 C36.70449219 1486.31429688 37.34257813 1486.65203125 38 1487 C38 1487.66 38 1488.32 38 1489 C38.721875 1488.94328125 39.44375 1488.8865625 40.1875 1488.828125 C43.53466488 1489.03267396 45.18015182 1489.96997084 48 1491.75 C48.825 1492.26046875 49.65 1492.7709375 50.5 1493.296875 C53 1495 53 1495 55.30859375 1496.94921875 C58.68389204 1499.52110787 62.24265206 1501.24535877 66.0625 1503.0625 C70.34960745 1505.11421505 74.21501925 1507.10264748 78 1510 C80.08122837 1510.90098114 80.08122837 1510.90098114 82.1875 1511.5625 C84.29296875 1512.25390625 84.29296875 1512.25390625 86 1513 C86.33 1513.66 86.66 1514.32 87 1515 C89.13895482 1516.05797765 91.31159251 1517.04851848 93.5 1518 C99.88888889 1520.77777778 99.88888889 1520.77777778 101 1523 C105.82958969 1526.0554547 110.61455202 1528.11036913 116 1530 C116 1530.66 116 1531.32 116 1532 C116.99 1532 117.98 1532 119 1532 C119.33 1532.66 119.66 1533.32 120 1534 C121.64363134 1534.72159424 123.31050386 1535.39351421 125 1536 C125 1536.66 125 1537.32 125 1538 C127.63904371 1539.41377341 130.07120629 1540.37240135 133 1541 C133 1541.99 133 1542.98 133 1544 C133.72703125 1544.11859375 134.4540625 1544.2371875 135.203125 1544.359375 C138.02415313 1545.00553228 140.1852061 1545.92569465 142.75 1547.25 C143.60851563 1547.69214844 144.46703125 1548.13429688 145.3515625 1548.58984375 C149.26470221 1550.67338864 153.14460842 1552.81155309 157 1555 C157 1555.99 157 1556.98 157 1558 C157.7425 1558.12375 158.485 1558.2475 159.25 1558.375 C161.80141485 1558.95486701 163.7267573 1559.73708739 166 1561 C166 1561.66 166 1562.32 166 1563 C166.70125 1562.9175 167.4025 1562.835 168.125 1562.75 C171.97138418 1563.08446819 174.00893216 1564.63496961 177 1567 C177 1567.66 177 1568.32 177 1569 C177.56203125 1569.11214844 178.1240625 1569.22429687 178.703125 1569.33984375 C181.31513108 1570.09057339 183.39471322 1571.21167376 185.75 1572.5625 C186.54921875 1573.01753906 187.3484375 1573.47257812 188.171875 1573.94140625 C188.77515625 1574.29074219 189.3784375 1574.64007812 190 1575 C190 1575.66 190 1576.32 190 1577 C191.65 1577 193.3 1577 195 1577 C195.33 1577.66 195.66 1578.32 196 1579 C196.99 1579.33 197.98 1579.66 199 1580 C199 1580.66 199 1581.32 199 1582 C199.721875 1582.12375 200.44375 1582.2475 201.1875 1582.375 C203.98200584 1582.9960013 206.41259045 1583.77816771 209 1585 C209.33 1585.66 209.66 1586.32 210 1587 C211.7117096 1588.01960978 211.7117096 1588.01960978 213.75 1588.9375 C222.60761834 1593.21523669 222.60761834 1593.21523669 224 1596 C226.34038186 1597.13102526 226.34038186 1597.13102526 229.0625 1598.125 C229.98160156 1598.47820312 230.90070313 1598.83140625 231.84765625 1599.1953125 C232.55792969 1599.46085937 233.26820312 1599.72640625 234 1600 C234 1600.66 234 1601.32 234 1602 C234.83337891 1602.16435547 234.83337891 1602.16435547 235.68359375 1602.33203125 C238.40503071 1603.11679638 240.59216564 1604.30134773 243.0625 1605.6875 C244.50109375 1606.48994141 244.50109375 1606.48994141 245.96875 1607.30859375 C247.46921875 1608.14583984 247.46921875 1608.14583984 249 1609 C251.9268557 1610.57059807 254.85476707 1612.13912963 257.78515625 1613.703125 C260 1615 260 1615 262 1617 C263.34068451 1617.43933636 264.69799416 1617.82892615 266.0625 1618.1875 C270.83982169 1619.67993222 274.09517086 1622.13750824 277.859375 1625.37890625 C280.14676174 1627.11114256 282.30358647 1628.05248406 285 1629 C285 1629.99 285 1630.98 285 1632 C285.7425 1632.12375 286.485 1632.2475 287.25 1632.375 C289.80141485 1632.95486701 291.7267573 1633.73708739 294 1635 C294 1635.66 294 1636.32 294 1637 C294.72960938 1637.10957031 295.45921875 1637.21914062 296.2109375 1637.33203125 C299.16764825 1638.04015105 301.07069746 1639.0600932 303.625 1640.6875 C307.26068929 1642.94693731 310.92157357 1645.08922409 314.6875 1647.125 C315.59628906 1647.61742187 316.50507812 1648.10984375 317.44140625 1648.6171875 C319.03231267 1649.47700563 320.62342141 1650.33644965 322.21484375 1651.1953125 C326.88771186 1653.77542373 326.88771186 1653.77542373 328 1656 C329.94761524 1656.72622941 331.89660198 1657.44922178 333.85546875 1658.14453125 C336.96224487 1659.38384632 339.35623899 1660.95108522 342 1663 C342 1663.66 342 1664.32 342 1665 C342.66 1665.0825 343.32 1665.165 344 1665.25 C349.71031241 1666.6775781 355.11868913 1669.74579276 360 1673 C360.33 1673.66 360.66 1674.32 361 1675 C362.71568102 1675.79852014 362.71568102 1675.79852014 364.75 1676.4375 C370.2751391 1678.41006298 374.67931526 1681.42573311 379.3515625 1684.9140625 C381.12801293 1686.18590344 381.12801293 1686.18590344 384 1687 C384.33 1687.66 384.66 1688.32 385 1689 C386.94761524 1689.72622941 388.89660198 1690.44922178 390.85546875 1691.14453125 C393.96224487 1692.38384632 396.35623899 1693.95108522 399 1696 C399 1696.66 399 1697.32 399 1698 C399.7425 1698.12375 400.485 1698.2475 401.25 1698.375 C403.82930049 1698.96120466 405.7482162 1699.63284555 408 1701 C408.33 1701.66 408.66 1702.32 409 1703 C410.96189525 1703.73155416 412.92531319 1704.4594531 414.8984375 1705.16015625 C417.89675057 1706.35836687 420.34064681 1708.1749537 423 1710 C427.75070207 1712.70569787 432.58681445 1715.25715104 437.42578125 1717.80078125 C438.56402344 1718.40277344 439.70226563 1719.00476562 440.875 1719.625 C441.92429687 1720.17414063 442.97359375 1720.72328125 444.0546875 1721.2890625 C447 1723 447 1723 449.51171875 1725.0234375 C452.19827323 1727.15749805 454.84081989 1728.53336128 457.9375 1730 C462.20534733 1732.08393039 466.24624591 1734.08041349 470 1737 C470 1737.66 470 1738.32 470 1739 C471.32 1739 472.64 1739 474 1739 C474.33 1739.66 474.66 1740.32 475 1741 C477.08296849 1741.83369564 477.08296849 1741.83369564 479.5 1742.5 C481.96875 1743.21875 481.96875 1743.21875 484 1744 C484.33 1744.66 484.66 1745.32 485 1746 C487.01669827 1747.13350534 487.01669827 1747.13350534 489 1748 C489 1748.66 489 1749.32 489 1750 C490.65 1750 492.3 1750 494 1750 C493.08052959 1747.45377425 492.25310714 1745.31913508 490.5625 1743.1875 C488.77501521 1740.6850213 487.93958554 1738.10497278 486.88989258 1735.2355957 C485.40440071 1731.5037304 483.48389454 1728.02202204 481.5625 1724.5 C480.79204132 1723.07341716 480.0225057 1721.6463354 479.25390625 1720.21875 C478.87661377 1719.5179834 478.49932129 1718.8172168 478.1105957 1718.09521484 C476.34351854 1714.76150276 474.67204637 1711.38208419 473 1708 C472.36913853 1706.7366549 471.73763231 1705.47363155 471.10546875 1704.2109375 C468.4375 1698.875 465.76953125 1693.5390625 463.1015625 1688.203125 C462.80233887 1687.605 462.50311523 1687.006875 462.19482422 1686.390625 C461.33117594 1684.66237255 460.47024506 1682.932763 459.609375 1681.203125 C458.57405369 1679.14253404 457.52315424 1677.08965809 456.453125 1675.046875 C455.99421875 1674.16515625 455.5353125 1673.2834375 455.0625 1672.375 C454.66160156 1671.61960937 454.26070312 1670.86421875 453.84765625 1670.0859375 C453 1668 453 1668 453 1664 C452.34 1664 451.68 1664 451 1664 C450.46375 1662.9275 449.9275 1661.855 449.375 1660.75 C449.0140625 1660.03199219 448.653125 1659.31398438 448.28125 1658.57421875 C447.33156901 1656.66617066 446.39626733 1654.75095103 445.46875 1652.83203125 C444.67984375 1651.21361328 444.67984375 1651.21361328 443.875 1649.5625 C443.37742187 1648.53253906 442.87984375 1647.50257812 442.3671875 1646.44140625 C441.23503245 1643.8833983 441.23503245 1643.8833983 439 1643 C437.11813998 1639.9681144 437 1638.75482645 437 1635 C436.34 1635 435.68 1635 435 1635 C434.51080078 1633.57107422 434.51080078 1633.57107422 434.01171875 1632.11328125 C433.57060497 1630.84625231 433.12918229 1629.57933087 432.6875 1628.3125 C432.25824219 1627.07113281 431.82898437 1625.82976562 431.38671875 1624.55078125 C430.13175686 1621.04232736 430.13175686 1621.04232736 428.33203125 1618.23046875 C427 1616 427 1616 427 1613 C426.34 1613 425.68 1613 425 1613 C424.57203125 1611.98035156 424.1440625 1610.96070313 423.703125 1609.91015625 C422.17732574 1606.35204241 420.49639626 1602.89356924 418.75 1599.4375 C418.12885269 1598.20445406 417.50776047 1596.97138037 416.88671875 1595.73828125 C416.5726709 1595.11646973 416.25862305 1594.4946582 415.93505859 1593.85400391 C414.46958481 1590.94830994 413.0165485 1588.03642435 411.5625 1585.125 C410.99015625 1583.9803125 410.4178125 1582.835625 409.828125 1581.65625 C407.18359375 1576.3671875 404.5390625 1571.078125 401.89453125 1565.7890625 C401.58725098 1565.17579102 401.2799707 1564.56251953 400.96337891 1563.93066406 C400.27406253 1562.54923632 399.58935974 1561.16550263 398.90771484 1559.78027344 C398.55016113 1559.05614258 398.19260742 1558.33201172 397.82421875 1557.5859375 C397.49897217 1556.92384277 397.17372559 1556.26174805 396.83862305 1555.57958984 C396.10023951 1554.00258403 396.10023951 1554.00258403 395 1553 C394.95936168 1551.33382885 394.957279 1549.66611905 395 1548 C394.34 1548 393.68 1548 393 1548 C392.67 1547.01 392.34 1546.02 392 1545 C391.05447266 1544.10861328 391.05447266 1544.10861328 390.08984375 1543.19921875 C387.57422143 1540.55193769 386.7504328 1538.25298357 385.5625 1534.8125 C383.75079182 1529.81061002 381.69632558 1525.33554634 378.91796875 1520.8046875 C378 1519 378 1519 378 1516 C377.01 1515.67 376.02 1515.34 375 1515 C373.75390625 1512.33984375 373.75390625 1512.33984375 372.5625 1508.9375 C370.29250143 1502.71375016 367.81007408 1496.99358405 364.375 1491.3125 C362.95912404 1488.93125407 362.0060027 1486.57788191 361 1484 C360.46375 1482.948125 359.9275 1481.89625 359.375 1480.8125 C358 1478 358 1478 358 1476 C358.75974314 1475.99902319 359.51948628 1475.99804638 360.30225194 1475.99703997 C405.40444592 1475.93867474 450.50659194 1475.8648078 495.60872687 1475.77101372 C501.03309633 1475.75974655 506.45746605 1475.74860793 511.88183594 1475.73754883 C512.96165827 1475.73534514 514.0414806 1475.73314146 515.15402482 1475.730871 C532.60200963 1475.69556949 550.04999439 1475.6706651 567.49800159 1475.64965298 C585.42239294 1475.62783385 603.34673825 1475.59472579 621.27109039 1475.55129844 C632.31723028 1475.52488668 643.36331289 1475.50711433 654.40948276 1475.50065396 C662.00055998 1475.49536784 669.59156532 1475.47904385 677.18260391 1475.45433434 C681.55183923 1475.44042888 685.92094622 1475.43110694 690.290205 1475.43499184 C722.94265531 1475.57043828 722.94265531 1475.57043828 754.75 1468.8125 C755.69770264 1468.50989258 756.64540527 1468.20728516 757.62182617 1467.89550781 C777.97045085 1461.21351258 796.97462774 1451.34999243 813 1437 C813.72993164 1436.35828857 813.72993164 1436.35828857 814.47460938 1435.70361328 C841.65660895 1411.78586524 860.20224406 1380.41009942 868 1345 C868.29777344 1343.74703125 868.59554687 1342.4940625 868.90234375 1341.203125 C873.32094287 1320.67706118 872.89787583 1296.41001628 868 1276 C867.80132324 1275.16500977 867.60264648 1274.33001953 867.39794922 1273.46972656 C864.25619719 1260.70032844 859.87697799 1248.75673865 854 1237 C853.69320312 1236.3797998 853.38640625 1235.75959961 853.0703125 1235.12060547 C846.71937534 1222.53068677 838.40363904 1211.08074722 830.43765259 1199.48356628 C824.60191752 1190.97849766 818.84274863 1182.42166735 813.07849121 1173.86807251 C811.24639275 1171.14987633 809.41290604 1168.4326216 807.57910156 1165.71557617 C801.70108888 1157.00257308 795.84352661 1148.27655543 790.01953125 1139.52734375 C782.89224166 1128.82048757 775.70080628 1118.15750193 768.5 1107.5 C760.71884862 1095.98356245 752.95946323 1084.45381571 745.25854492 1072.88354492 C738.71575755 1063.05975154 732.1079396 1053.28003383 725.5 1043.5 C717.71884862 1031.98356245 709.95946323 1020.45381571 702.25854492 1008.88354492 C695.71575755 999.05975154 689.1079396 989.28003383 682.5 979.5 C674.71884862 967.98356245 666.95946323 956.45381571 659.25854492 944.88354492 C652.71575755 935.05975154 646.1079396 925.28003383 639.5 915.5 C631.71884862 903.98356245 623.95946323 892.45381571 616.25854492 880.88354492 C609.71575755 871.05975154 603.1079396 861.28003383 596.5 851.5 C588.71884862 839.98356245 580.95946323 828.45381571 573.25854492 816.88354492 C566.71575755 807.05975154 560.1079396 797.28003383 553.5 787.5 C545.71884862 775.98356245 537.95946323 764.45381571 530.25854492 752.88354492 C523.71575755 743.05975154 517.1079396 733.28003383 510.5 723.5 C502.71884862 711.98356245 494.95946323 700.45381571 487.25854492 688.88354492 C480.71575755 679.05975154 474.1079396 669.28003383 467.5 659.5 C459.71884862 647.98356245 451.95946323 636.45381571 444.25854492 624.88354492 C437.71575755 615.05975154 431.1079396 605.28003383 424.5 595.5 C416.71884862 583.98356245 408.95946323 572.45381571 401.25854492 560.88354492 C394.71575755 551.05975154 388.1079396 541.28003383 381.5 531.5 C373.71884862 519.98356245 365.95946323 508.45381571 358.25854492 496.88354492 C351.71575755 487.05975154 345.1079396 477.28003383 338.5 467.5 C330.71884862 455.98356245 322.95946323 444.45381571 315.25854492 432.88354492 C308.71575755 423.05975154 302.1079396 413.28003383 295.5 403.5 C287.71884862 391.98356245 279.95946323 380.45381571 272.25854492 368.88354492 C265.71575755 359.05975154 259.1079396 349.28003383 252.5 339.5 C244.71884862 327.98356245 236.95946323 316.45381571 229.25854492 304.88354492 C222.71575755 295.05975154 216.1079396 285.28003383 209.5 275.5 C201.71884862 263.98356245 193.95946323 252.45381571 186.25854492 240.88354492 C179.71575755 231.05975154 173.1079396 221.28003383 166.5 211.5 C158.71579907 199.97904898 150.9534239 188.44475057 143.2494812 176.86994934 C137.35960032 168.02647355 131.41608328 159.2195217 125.46777344 150.4152832 C108.77707519 125.7087157 108.77707519 125.7087157 101 114 C93.40523216 102.56980475 85.73347155 91.19163236 78.0625 79.8125 C77.43303467 78.87817139 76.80356934 77.94384277 76.1550293 76.98120117 C72.11233625 70.98136069 68.06225639 64.98661399 64 59 C63.30245605 57.97113174 63.30245605 57.97113174 62.59082031 56.92147827 C61.36812644 55.12182287 60.14043457 53.32572611 58.91015625 51.53125 C58.25539307 50.57412109 57.60062988 49.61699219 56.92602539 48.63085938 C54.22794182 44.94540512 51.22704581 41.59830759 48.109375 38.265625 C46.19740352 36.21202601 44.41211677 34.09906029 42.625 31.9375 C31.203966 18.89609046 15.10613531 9.21883958 0 1 C0 0.67 0 0.34 0 0 Z " fill="#000000" transform="translate(1260,113)"/>
<path d="M0 0 C1.36491582 -0.00209147 2.72983053 -0.00505781 4.0947428 -0.00880873 C7.82404324 -0.01654818 11.55323919 -0.01196271 15.28253779 -0.00525283 C19.34802504 -0.00015732 23.41349687 -0.00670801 27.47898191 -0.01173949 C34.5974621 -0.01894959 41.71591193 -0.0187519 48.8343935 -0.01364517 C59.4203063 -0.00607166 70.00619355 -0.00995222 80.59210619 -0.01606179 C99.50191698 -0.02658926 118.41171425 -0.02568189 137.32152633 -0.01990396 C153.87427366 -0.01487117 170.42701604 -0.01356022 186.97976398 -0.01594925 C188.62728835 -0.0161784 188.62728835 -0.0161784 190.30809605 -0.01641219 C194.76682727 -0.01703488 199.2255585 -0.01767168 203.68428972 -0.01833172 C245.51129732 -0.02444962 287.33829632 -0.01890349 329.16530259 -0.00813792 C366.30524387 0.00134862 403.44517142 0.00050791 440.58511257 -0.00905991 C482.3254705 -0.01977695 524.06582083 -0.02401109 565.80617994 -0.01783538 C570.2589184 -0.01719396 574.71165687 -0.01656828 579.16439533 -0.01594925 C580.260747 -0.01579109 581.35709867 -0.01563294 582.48667311 -0.01546999 C599.02192531 -0.0131978 615.557172 -0.01585057 632.09242344 -0.02090836 C650.90464244 -0.02663398 669.71684582 -0.02518229 688.52906287 -0.01434687 C699.04953102 -0.0084867 709.56996532 -0.00807294 720.09043257 -0.01563922 C727.12815048 -0.02014111 734.16584138 -0.01730205 741.20355531 -0.00862968 C745.20656312 -0.00389671 749.20950394 -0.00219366 753.21250952 -0.00944164 C773.34090465 -0.04322466 793.0560116 0.52136005 812.91543484 4.12668228 C813.88899929 4.30175308 814.86256374 4.47682388 815.86563015 4.65719986 C822.65707739 5.91632016 829.29066552 7.39669103 835.86367702 9.54562759 C837.52727342 10.08523289 839.19548954 10.61061563 840.86563015 11.12961197 C903.10399664 30.47525949 959.46755851 68.73612437 990.46586514 127.17871475 C995.01967407 135.92981857 998.74246358 145.00448303 1002.47793484 154.12668228 C1003.25268861 156.00041919 1004.02834393 157.87378355 1004.80483913 159.74679947 C1006.41449588 163.63145008 1008.02031689 167.51765249 1009.62344265 171.40500259 C1013.12191199 179.87922944 1016.66944837 188.3328784 1020.21508694 196.78744888 C1021.34458658 199.48176827 1022.4726844 202.17666988 1023.60024929 204.87179947 C1027.07899895 213.18662813 1030.5630421 221.49916689 1034.05996609 229.80636978 C1034.67872712 231.27738694 1035.29746166 232.74841524 1035.91616726 234.21945572 C1037.05371124 236.92405535 1038.19350472 239.62769121 1039.33462429 242.33078384 C1040.07458645 244.08987076 1040.07458645 244.08987076 1040.82949734 245.88449478 C1041.25956081 246.90430435 1041.68962429 247.92411392 1042.13271999 248.97482681 C1043.04043484 251.25168228 1043.04043484 251.25168228 1043.04043484 252.25168228 C972.75043484 252.25168228 902.46043484 252.25168228 830.04043484 252.25168228 C826.5769173 244.74739429 823.2022116 237.34905572 820.05947781 229.72677994 C810.93517585 207.62703133 800.58022132 189.6286052 784.04043484 172.25168228 C783.15098171 171.28295181 783.15098171 171.28295181 782.24355984 170.29465103 C772.512686 160.00979181 760.1597143 152.38031842 748.04043484 145.25168228 C747.43505886 144.89332291 746.82968288 144.53496353 746.20596218 144.16574478 C721.08004449 129.48884309 690.23156084 120.06872261 661.05852795 120.1174612 C660.08868513 120.11510897 659.11884231 120.11275674 658.11961031 120.11033323 C654.87443674 120.10368386 651.62930359 120.10410023 648.3841238 120.10451126 C646.03193643 120.10121011 643.67974962 120.09748401 641.32756352 120.09336978 C635.54379279 120.0844182 629.76003174 120.08012672 623.97625482 120.07785082 C617.04550955 120.07488102 610.11477435 120.06617904 603.18403439 120.05743654 C586.43343875 120.03662209 569.68284138 120.02612677 552.93223582 120.01730693 C545.00230341 120.01309583 537.07237176 120.00787445 529.14243998 120.0026224 C501.97852541 119.98473414 474.81461061 119.96974002 447.65069103 119.96230221 C445.9462721 119.96182746 444.24185317 119.96135157 442.53743424 119.96087455 C441.69222653 119.96063817 440.84701882 119.96040179 439.97619875 119.96015825 C435.69422536 119.9589571 431.41225197 119.95774164 427.13027859 119.95651627 C426.28052048 119.95627612 425.43076238 119.95603597 424.55525403 119.95578854 C397.0191312 119.94789988 369.4830515 119.924476 341.9469475 119.89196032 C312.81033364 119.85761775 283.673745 119.83794696 254.53711057 119.83465797 C251.33491308 119.83424045 248.13271562 119.8337609 244.93051815 119.83323479 C244.14209046 119.8331116 243.35366277 119.8329884 242.54134334 119.83286148 C229.88442485 119.83053494 217.22755669 119.81490556 204.57065611 119.79439294 C191.83349658 119.77407873 179.09639713 119.76868399 166.35922441 119.77816357 C159.46654623 119.7829021 152.57401618 119.78139702 145.6813612 119.76140213 C139.35948435 119.74370815 133.03788782 119.74481886 126.71600774 119.76029942 C124.44067922 119.76266602 122.16533097 119.75840181 119.8900325 119.74647077 C105.47678778 119.67563183 92.08773688 120.98688231 78.04043484 124.25168228 C77.33859002 124.41160926 76.6367452 124.57153624 75.91363236 124.73630949 C44.64396968 131.91783633 15.66720497 147.67256556 -7.95956516 169.25168228 C-8.72478489 169.94898453 -8.72478489 169.94898453 -9.5054636 170.66037369 C-15.50077263 176.20137744 -20.8417198 182.06901626 -25.70956516 188.62668228 C-26.12093723 189.17807877 -26.5323093 189.72947525 -26.95614719 190.29758072 C-36.12345893 203.09203788 -42.05017938 217.05158028 -47.89706516 231.56418228 C-49.04302012 234.38541998 -50.19170885 237.20551475 -51.34275913 240.02467728 C-52.05187724 241.76381577 -52.75759823 243.50434413 -53.4595499 245.24638748 C-55.84987511 251.14199223 -55.84987511 251.14199223 -56.95956516 252.25168228 C-59.70333409 252.34955448 -62.42192494 252.38161571 -65.16612339 252.3719368 C-66.03677447 252.37279122 -66.90742555 252.37364565 -67.80445999 252.37452596 C-70.74493538 252.37618344 -73.68535472 252.37065504 -76.62582493 252.36520767 C-78.7244679 252.36492583 -80.82311097 252.36508347 -82.92175388 252.36565018 C-88.63846306 252.36593828 -94.35515146 252.36003956 -100.07185578 252.35307622 C-106.03897672 252.34684473 -112.00609809 252.34623905 -117.97322178 252.34505081 C-129.28151146 252.34193689 -140.58979152 252.33372269 -151.89807695 252.32370132 C-164.76847068 252.31254207 -177.63886485 252.30703021 -190.5092622 252.30200589 C-216.99270186 252.29154012 -243.47613298 252.27393951 -269.95956516 252.25168228 C-269.1671421 250.18354615 -268.37395971 248.11570095 -267.58046055 246.04797745 C-267.13883925 244.89641474 -266.69721796 243.74485203 -266.2422142 242.55839348 C-264.6182131 238.37166548 -262.91137018 234.2251284 -261.16659641 230.08761978 C-260.65119549 228.85856415 -260.65119549 228.85856415 -260.12538242 227.60467911 C-259.00941988 224.94458282 -257.89078925 222.28561821 -256.77206516 219.62668228 C-255.9802128 217.74101806 -255.18854984 215.8552743 -254.39706516 213.96945572 C-253.16635111 211.03721816 -251.93547676 208.10504892 -250.70385838 205.17319107 C-247.83636152 198.34621108 -244.97898594 191.51506543 -242.12753391 184.68136978 C-237.75288734 174.19862922 -233.36621082 163.72101478 -228.95956516 153.25168228 C-228.68157078 152.59087662 -228.40357639 151.93007095 -228.11715794 151.24924088 C-217.93101065 127.05892629 -206.42490608 105.99511114 -188.95956516 86.25168228 C-187.87095188 84.97937759 -187.87095188 84.97937759 -186.76034641 83.68136978 C-149.29062875 40.60158349 -87.19985133 8.32795612 -30.52597141 2.63840103 C-28.42976925 2.411102 -26.33604379 2.14402122 -24.25829927 1.78526498 C-16.11004606 0.38281669 -8.25698143 -0.03129035 0 0 Z " fill="#D2E5E9" transform="translate(799.9595651626587,1301.7483177185059)"/>
<path d="M0 0 C1.36854208 -0.0041837 2.73708069 -0.00966685 4.10561299 -0.01631981 C7.8288141 -0.03065774 11.55179165 -0.02656662 15.27500439 -0.019153 C19.3051525 -0.01439438 23.3352541 -0.02695494 27.36538696 -0.03717041 C35.2467754 -0.05431216 43.12808394 -0.05520793 51.00948617 -0.04995751 C57.42065167 -0.04590538 63.83179368 -0.04737171 70.24295807 -0.05270576 C71.15770834 -0.05345419 72.07245862 -0.05420261 73.01492859 -0.05497371 C74.87365523 -0.0565053 76.73238185 -0.05804364 78.59110847 -0.05958868 C95.99829102 -0.07329738 113.40542855 -0.06788785 130.81261006 -0.05640347 C146.70799888 -0.04647619 162.6032712 -0.05940593 178.49864206 -0.08333766 C194.85155725 -0.10777118 211.20441828 -0.11732588 227.55735135 -0.11068493 C236.72559322 -0.10720171 245.89374559 -0.10936506 255.06197357 -0.12693596 C262.86790128 -0.14171139 270.67367647 -0.14222417 278.47960135 -0.12486505 C282.45546639 -0.11639576 286.43105961 -0.11410456 290.40690994 -0.1295166 C320.49658609 -0.23778256 345.56497687 3.37923226 367.94708252 25.38768005 C368.99702393 26.41828552 368.99702393 26.41828552 370.06817627 27.4697113 C378.22242453 36.0372353 384.32857371 47.14757782 387.94708252 58.38768005 C388.24485596 59.28873474 388.54262939 60.18978943 388.84942627 61.1181488 C394.73603873 82.08751023 390.83093185 104.32597062 380.94708252 123.38768005 C370.15084388 141.60633276 354.89471653 154.42663788 334.94708252 161.38768005 C333.967463 161.74092094 332.98784348 162.09416183 331.97853851 162.45810699 C318.04219329 166.68858533 303.58902017 165.95883362 289.17176175 165.91057873 C285.12940923 165.9014481 281.08712338 165.91553726 277.04478455 165.92649841 C269.14606832 165.94420356 261.24750489 165.94047958 253.3487829 165.92884785 C246.92432751 165.91978209 240.49991467 165.91860305 234.07545471 165.92294312 C233.15804682 165.92355605 232.24063894 165.92416898 231.29543081 165.92480049 C229.43122604 165.9260795 227.56702129 165.92737635 225.70281655 165.92869085 C208.25795913 165.9400732 190.81318604 165.92701986 173.36834246 165.90548939 C158.42823835 165.88762054 143.4882586 165.89072531 128.54815674 165.90916443 C111.16199942 165.93061269 93.77591585 165.93897478 76.38974714 165.92671537 C74.53273488 165.92544129 72.67572261 165.92418381 70.81871033 165.92294312 C69.90523281 165.92232601 68.99175528 165.92170891 68.05059662 165.92107311 C61.64036679 165.91763206 55.23018408 165.92342158 48.81996155 165.93286133 C40.99869915 165.94412678 33.17759715 165.94094634 25.35635293 165.91973835 C21.37249569 165.9092887 17.38890502 165.90500091 13.40505028 165.91833496 C-22.86425726 166.02970218 -22.86425726 166.02970218 -38.36541748 157.63768005 C-39.02364502 157.29333923 -39.68187256 156.94899841 -40.36004639 156.59422302 C-61.88257217 145.04798389 -75.69344783 127.23693382 -83.08416748 104.16893005 C-88.9013569 81.54652677 -84.76065832 59.23452102 -73.05291748 39.38768005 C-61.07699483 20.31758636 -43.01605528 7.31246799 -21.19123459 1.83134365 C-14.06516821 0.21868611 -7.2830123 -0.03523313 0 0 Z " fill="#067486" transform="translate(1033.0529174804688,587.6123199462891)"/>
<path d="M0 0 C1.12865819 -0.00382555 2.25731638 -0.00765109 3.42017633 -0.01159257 C7.19848476 -0.02190325 10.97664069 -0.01793398 14.75495911 -0.01396179 C17.4655552 -0.01721639 20.17614284 -0.0234284 22.88673401 -0.02944946 C29.48387019 -0.0421876 36.08096565 -0.04399115 42.67811205 -0.0416492 C48.04350298 -0.0398644 53.40888156 -0.04161917 58.77427101 -0.04587364 C59.92081395 -0.04676643 59.92081395 -0.04676643 61.09051937 -0.04767724 C62.64348886 -0.04888904 64.19645835 -0.05010317 65.74942783 -0.05131962 C80.30889618 -0.06219237 94.86834136 -0.0600343 109.427811 -0.05393478 C122.73063318 -0.04876946 136.03338204 -0.06001135 149.33618971 -0.07903299 C163.00962624 -0.09843397 176.68302813 -0.10666321 190.35647851 -0.10290974 C198.02731094 -0.10100066 205.69808104 -0.10345634 213.36890221 -0.11762428 C219.90149611 -0.1295681 226.43398934 -0.1309097 232.9665847 -0.11883412 C236.29574051 -0.11296546 239.62456243 -0.11343233 242.95372963 -0.12383652 C246.5730002 -0.13432889 250.19178178 -0.12618259 253.81103516 -0.11352539 C254.8490989 -0.12089968 255.88716264 -0.12827396 256.95668286 -0.13587171 C270.02438971 -0.04021375 280.91816291 3.29640104 290.75422668 12.07319641 C299.74522867 21.53740903 303.00256332 32.09671004 302.87141418 44.79194641 C302.40032549 55.80054542 297.43805079 65.27362897 289.95344543 73.22163391 C280.16214765 82.17269774 268.93377968 84.72246761 256.00253296 84.64837646 C254.86243883 84.653762 253.72234469 84.65914754 252.54770225 84.66469628 C248.74867498 84.67894011 244.9499979 84.67188074 241.1509552 84.66474915 C238.41858523 84.66881315 235.68623285 84.67731944 232.95387268 84.68554688 C226.31535624 84.70269695 219.67693462 84.70358285 213.03840179 84.69833397 C207.64017415 84.69428418 202.24197441 84.69574542 196.84374809 84.70108223 C195.68905569 84.70220486 195.68905569 84.70220486 194.51103617 84.70335018 C192.94695155 84.70488173 191.38286693 84.70642008 189.81878232 84.70796514 C175.1687104 84.72167631 160.51869197 84.7162621 145.86862128 84.70477993 C132.48122552 84.69484761 119.09396797 84.70779063 105.70659352 84.73171412 C91.9415284 84.75612619 78.17652759 84.7657079 64.41144127 84.7590614 C56.69092567 84.75557403 48.97051634 84.75776933 41.25001717 84.77531242 C34.67827929 84.79006076 28.10672254 84.79063556 21.53498811 84.77324151 C18.18560252 84.7647507 14.8368046 84.7647169 11.48739433 84.77789307 C7.84809457 84.79111419 4.20966675 84.77954391 0.57040405 84.76190186 C-0.99966413 84.77630937 -0.99966413 84.77630937 -2.60145086 84.79100794 C-14.96985548 84.66809696 -24.93590703 79.92846646 -34.02311707 71.67475891 C-40.05353489 65.25275551 -44.96630063 56.116293 -45.27702332 47.26069641 C-45.33760925 46.2951886 -45.39819519 45.32968079 -45.46061707 44.33491516 C-45.94054657 31.95855137 -42.1661683 22.73434197 -34.27702332 13.26069641 C-24.67930089 3.15316425 -13.52946363 -0.04873368 0 0 Z " fill="#FEFEFE" transform="translate(1057.2770233154297,1157.7393035888672)"/>
<path d="M0 0 C6.01021195 4.57920911 8.89700819 11.66406392 10 19 C11.06451132 31.87060719 10.17366271 42.81419175 1.875 53.3125 C-2.41313175 57.81644582 -7.60855677 60.97066846 -13 64 C-13.8971875 64.5053125 -14.794375 65.010625 -15.71875 65.53125 C-38.50494133 75.73078326 -66.39994082 74.08558432 -89.76171875 66.83203125 C-99.83071804 62.92824106 -109.32421577 56.29587477 -114.2890625 46.44140625 C-119.00936859 35.01419043 -119.79709124 22.29042406 -115.046875 10.66796875 C-111.62426128 3.58009331 -111.62426128 3.58009331 -108.3046875 2.39453125 C-102.10880262 1.33387977 -93.82659461 0.38879333 -88.125 3.5 C-85.65524396 6.40559534 -85.37569492 8.285152 -85.66015625 12.06640625 C-86.09540771 14.54283695 -87.05720554 16.67074311 -88 19 C-89.10611346 24.92633266 -89.71894819 30.45334569 -87 36 C-77.54045079 43.9748666 -66.68325478 44.19854791 -54.875 44.25 C-53.71484375 44.270625 -52.5546875 44.29125 -51.359375 44.3125 C-40.88151553 44.3593808 -29.15311502 43.37961437 -21 36 C-18.21052705 31.63227261 -18.33111239 27.01665707 -19 22 C-19.84846955 20.06554937 -19.84846955 20.06554937 -21 18.375 C-23.59339181 13.99865133 -23.65648708 12.00571401 -23 7 C-20.08049704 3.25633113 -17.10786702 2.04071977 -12.625 0.6875 C-11.52414062 0.34074219 -10.42328125 -0.00601563 -9.2890625 -0.36328125 C-5.77086027 -1.0443584 -3.44796645 -0.91586609 0 0 Z " fill="#097587" transform="translate(1240,859)"/>
<path d="M0 0 C6.68698328 4.98443477 12.16761548 10.75815419 15.45703125 18.48828125 C16.04484375 19.78765625 16.04484375 19.78765625 16.64453125 21.11328125 C18.978557 30.80846515 18.09923207 42.36147832 12.9453125 51.03125 C5.82393062 60.58510389 -2.5299112 66.62595035 -14.54296875 68.48828125 C-25.5850235 69.5115422 -34.07491107 67.07737106 -42.7265625 60.12109375 C-50.71051179 52.94412429 -54.80919577 44.40645833 -55.8046875 33.6640625 C-56.20686821 22.83292006 -52.7667146 14.50508751 -45.54296875 6.48828125 C-41.61164371 2.57470486 -37.6829609 -0.32448805 -32.54296875 -2.51171875 C-31.67671875 -2.90359375 -30.81046875 -3.29546875 -29.91796875 -3.69921875 C-20.22278485 -6.0332445 -8.66977168 -5.15391957 0 0 Z " fill="#003C4A" transform="translate(1379.54296875,1455.51171875)"/>
<path d="M0 0 C6.68698328 4.98443477 12.16761548 10.75815419 15.45703125 18.48828125 C16.04484375 19.78765625 16.04484375 19.78765625 16.64453125 21.11328125 C18.978557 30.80846515 18.09923207 42.36147832 12.9453125 51.03125 C5.82393062 60.58510389 -2.5299112 66.62595035 -14.54296875 68.48828125 C-25.5850235 69.5115422 -34.07491107 67.07737106 -42.7265625 60.12109375 C-50.71051179 52.94412429 -54.80919577 44.40645833 -55.8046875 33.6640625 C-56.20686821 22.83292006 -52.7667146 14.50508751 -45.54296875 6.48828125 C-41.61164371 2.57470486 -37.6829609 -0.32448805 -32.54296875 -2.51171875 C-31.67671875 -2.90359375 -30.81046875 -3.29546875 -29.91796875 -3.69921875 C-20.22278485 -6.0332445 -8.66977168 -5.15391957 0 0 Z " fill="#003C4A" transform="translate(1222.54296875,1455.51171875)"/>
<path d="M0 0 C6.68698328 4.98443477 12.16761548 10.75815419 15.45703125 18.48828125 C16.04484375 19.78765625 16.04484375 19.78765625 16.64453125 21.11328125 C18.978557 30.80846515 18.09923207 42.36147832 12.9453125 51.03125 C5.82393062 60.58510389 -2.5299112 66.62595035 -14.54296875 68.48828125 C-25.5850235 69.5115422 -34.07491107 67.07737106 -42.7265625 60.12109375 C-50.71051179 52.94412429 -54.80919577 44.40645833 -55.8046875 33.6640625 C-56.20686821 22.83292006 -52.7667146 14.50508751 -45.54296875 6.48828125 C-41.61164371 2.57470486 -37.6829609 -0.32448805 -32.54296875 -2.51171875 C-31.67671875 -2.90359375 -30.81046875 -3.29546875 -29.91796875 -3.69921875 C-20.22278485 -6.0332445 -8.66977168 -5.15391957 0 0 Z " fill="#003C4A" transform="translate(1067.54296875,1455.51171875)"/>
<path d="M0 0 C7.13509915 5.32738108 12.38503658 11.0510381 15.453125 19.48828125 C16.0409375 20.84953125 16.0409375 20.84953125 16.640625 22.23828125 C18.98046459 31.5976396 17.90181915 42.67807819 12.94140625 51.03515625 C5.79887029 60.60133924 -2.52000256 66.58930139 -14.546875 68.48828125 C-24.13980628 69.32370169 -32.46315843 68.06771917 -40.296875 62.23828125 C-49.38626167 54.59420342 -54.72045965 45.97780926 -55.7734375 33.88671875 C-56.12050896 22.68577623 -53.16633369 14.7059619 -45.546875 6.48828125 C-41.30236875 2.18743199 -37.28876816 -0.4237576 -31.546875 -2.51171875 C-30.639375 -2.90359375 -29.731875 -3.29546875 -28.796875 -3.69921875 C-19.43751665 -6.03905834 -8.35707806 -4.9604129 0 0 Z " fill="#003C4A" transform="translate(1293.546875,628.51171875)"/>
<path d="M0 0 C7.13509915 5.32738108 12.38503658 11.0510381 15.453125 19.48828125 C16.0409375 20.84953125 16.0409375 20.84953125 16.640625 22.23828125 C18.98046459 31.5976396 17.90181915 42.67807819 12.94140625 51.03515625 C5.79887029 60.60133924 -2.52000256 66.58930139 -14.546875 68.48828125 C-24.13980628 69.32370169 -32.46315843 68.06771917 -40.296875 62.23828125 C-49.38626167 54.59420342 -54.72045965 45.97780926 -55.7734375 33.88671875 C-56.12050896 22.68577623 -53.16633369 14.7059619 -45.546875 6.48828125 C-41.30236875 2.18743199 -37.28876816 -0.4237576 -31.546875 -2.51171875 C-30.639375 -2.90359375 -29.731875 -3.29546875 -28.796875 -3.69921875 C-19.43751665 -6.03905834 -8.35707806 -4.9604129 0 0 Z " fill="#003C4A" transform="translate(1096.546875,628.51171875)"/>
<path d="M0 0 C8 2.15384615 8 2.15384615 11 4 C11.33 4.66 11.66 5.32 12 6 C13.939955 7.06058107 13.939955 7.06058107 16.25 8 C17.46236328 8.51820312 17.46236328 8.51820312 18.69921875 9.046875 C21.12512096 10.05183279 23.5511641 11.05206352 26 12 C26 12.99 26 13.98 26 15 C27.65 15 29.3 15 31 15 C31.33 15.66 31.66 16.32 32 17 C32.99 17.33 33.98 17.66 35 18 C35 18.66 35 19.32 35 20 C36.32 20 37.64 20 39 20 C39 20.66 39 21.32 39 22 C39.9075 22.103125 40.815 22.20625 41.75 22.3125 C45.03071844 23.00649813 46.60889095 23.70085668 49 26 C49 26.66 49 27.32 49 28 C50.32 28 51.64 28 53 28 C53.495 28.99 53.495 28.99 54 30 C56.52733235 30.65555119 56.52733235 30.65555119 59 31 C59 31.99 59 32.98 59 34 C60.65 34 62.3 34 64 34 C64.33 34.66 64.66 35.32 65 36 C65.763125 36.28875 66.52625 36.5775 67.3125 36.875 C70 38 70 38 71.6875 39.875 C75.22396906 43.12472833 79.52539766 44.39460832 84 46 C84 46.66 84 47.32 84 48 C85.32 48.66 86.64 49.32 88 50 C81.59483894 50 74.76666417 45.34659513 69.5625 41.75 C67.06327138 39.90735262 67.06327138 39.90735262 64.1875 38.875 C62 38 62 38 61 36 C59.14759836 35.16952992 59.14759836 35.16952992 57 34.5 C54.8125 33.78125 54.8125 33.78125 53 33 C52.67 32.34 52.34 31.68 52 31 C47.61382322 28.1725472 42.92053962 25.74599793 38 24 C38 23.34 38 22.68 38 22 C37.46375 21.9175 36.9275 21.835 36.375 21.75 C33.82607178 20.9450753 31.95530355 19.69702582 29.7734375 18.1796875 C24.84707646 14.90268082 19.58285185 11.98101195 14 10 C14 9.34 14 8.68 14 8 C13.484375 7.9175 12.96875 7.835 12.4375 7.75 C7.7336064 6.30264812 3.21429824 3.78152734 0 0 Z " fill="#03434D" transform="translate(1606,1778)"/>
<path d="M0 0 C4.62609198 -0.3227506 7.28026121 0.15549386 11 3 C11 3.66 11 4.32 11 5 C12.65 5.33 14.3 5.66 16 6 C16 6.99 16 7.98 16 9 C16.825 9.04125 17.65 9.0825 18.5 9.125 C22.5534356 10.1383589 24.63004924 11.80038703 27.8359375 14.375 C30.78310408 16.58803483 33.94401235 18.23877137 37.21484375 19.921875 C39 21 39 21 40 23 C35.36618157 21.67605188 31.95415778 19.72397536 28 17 C27.01 16.67 26.02 16.34 25 16 C24.67 15.34 24.34 14.68 24 14 C22.35965807 13.27095914 20.68698082 12.61344757 19 12 C14.11111111 10.22222222 14.11111111 10.22222222 13 8 C11.0282696 6.94535351 9.02237052 5.95394836 7 5 C1.11111111 2.22222222 1.11111111 2.22222222 0 0 Z " fill="#03404A" transform="translate(1469,1699)"/>
<path d="M0 0 C5.19773988 1.24745757 8.53773725 2.96566133 13 6 C15.95974618 7.43119305 18.96682919 8.73280864 22 10 C22 10.99 22 11.98 22 13 C23.65 13 25.3 13 27 13 C27 13.66 27 14.32 27 15 C27.86625 15.1546875 27.86625 15.1546875 28.75 15.3125 C31.35661158 16.10896465 32.9735311 17.19065277 35 19 C35 19.66 35 20.32 35 21 C35.66 21.33 36.32 21.66 37 22 C36.01 22 35.02 22 34 22 C34 21.34 34 20.68 34 20 C32.68 19.67 31.36 19.34 30 19 C30 18.34 30 17.68 30 17 C28.35 17 26.7 17 25 17 C24.67 16.34 24.34 15.68 24 15 C22.0282696 13.94535351 20.02237052 12.95394836 18 12 C12.11111111 9.22222222 12.11111111 9.22222222 11 7 C7.71675094 4.71996593 4.95371299 3.56481614 1 3 C0.67 2.01 0.34 1.02 0 0 Z " fill="#03434D" transform="translate(1425,1673)"/>
<path d="M0 0 C2.31 0.33 4.62 0.66 7 1 C7.33 1.99 7.66 2.98 8 4 C10.01508358 4.73323796 10.01508358 4.73323796 12 5 C12 5.66 12 6.32 12 7 C12.7425 6.9175 13.485 6.835 14.25 6.75 C17.84213479 7.07655771 18.69607994 8.31209326 21 11 C21.86625 11.86625 21.86625 11.86625 22.75 12.75 C23.1625 13.1625 23.575 13.575 24 14 C22.68 14 21.36 14 20 14 C19.67 13.34 19.34 12.68 19 12 C14.61382322 9.1725472 9.92053962 6.74599793 5 5 C5 4.34 5 3.68 5 3 C4.360625 2.87625 3.72125 2.7525 3.0625 2.625 C2.381875 2.41875 1.70125 2.2125 1 2 C0.67 1.34 0.34 0.68 0 0 Z " fill="#034550" transform="translate(1582,1764)"/>
<path d="M0 0 C2.65765532 1.32882766 2.82964912 2.5940386 3.9375 5.3125 C5.05542546 7.95867562 6.00900821 10.01190371 7.75 12.3125 C9 14 9 14 9 18 C7.35 18 5.7 18 4 18 C3.67 17.34 3.34 16.68 3 16 C0.98330173 14.86649466 0.98330173 14.86649466 -1 14 C1.49092811 12.75453595 2.41080733 13.2232422 5 14 C5 13.01 5 12.02 5 11 C4.34 11 3.68 11 3 11 C3 9.68 3 8.36 3 7 C2.34 7 1.68 7 1 7 C0.67 4.69 0.34 2.38 0 0 Z " fill="#034651" transform="translate(1745,1845)"/>
<path d="M0 0 C4.04334814 1.22240758 7.50639197 2.60438306 11 5 C11.33 5.66 11.66 6.32 12 7 C14.34038186 8.13102526 14.34038186 8.13102526 17.0625 9.125 C18.44115234 9.65480469 18.44115234 9.65480469 19.84765625 10.1953125 C20.55792969 10.46085937 21.26820312 10.72640625 22 11 C22 11.66 22 12.32 22 13 C22.639375 13.12375 23.27875 13.2475 23.9375 13.375 C24.618125 13.58125 25.29875 13.7875 26 14 C26.33 14.66 26.66 15.32 27 16 C18.91489905 13.81483758 11.34397996 9.41104173 5 4 C4.071875 3.443125 3.14375 2.88625 2.1875 2.3125 C1.465625 1.879375 0.74375 1.44625 0 1 C0 0.67 0 0.34 0 0 Z " fill="#03424C" transform="translate(1307,1604)"/>
<path d="M0 0 C4.1445707 0.60949569 7.3136063 2.03915228 11 4 C11.763125 4.350625 12.52625 4.70125 13.3125 5.0625 C15 6 15 6 16 8 C17.64142963 9.0409066 19.30712215 10.04504326 21 11 C18.12862585 11 15.7696959 10.72886734 13 10 C12.67 9.34 12.34 8.68 12 8 C10.51132724 7.07133836 8.98445294 6.20294664 7.4375 5.375 C6.61121094 4.92898438 5.78492188 4.48296875 4.93359375 4.0234375 C4.29550781 3.68570312 3.65742187 3.34796875 3 3 C3 2.34 3 1.68 3 1 C2.01 0.67 1.02 0.34 0 0 Z " fill="#033E48" transform="translate(1285,1592)"/>
<path d="M0 0 C3.5664229 0.56837913 6.20829046 1.47948413 9.3125 3.3125 C12.91785092 5.41059719 16.55156942 7.23573851 20.37109375 8.91015625 C22.43856929 10.29343125 23.06207528 11.73295582 24 14 C21.69 13.34 19.38 12.68 17 12 C17 11.01 17 10.02 17 9 C16.44441406 8.89558594 15.88882812 8.79117187 15.31640625 8.68359375 C12.53544564 7.86290554 10.4035282 6.58377532 7.9375 5.0625 C7.08027344 4.53785156 6.22304687 4.01320313 5.33984375 3.47265625 C3.54288931 2.34168492 1.76664116 1.17776077 0 0 Z " fill="#03444F" transform="translate(1400,1659)"/>
<path d="M0 0 C4.62609198 -0.3227506 7.28026121 0.15549386 11 3 C11 3.66 11 4.32 11 5 C12.65 5.33 14.3 5.66 16 6 C15.67 6.66 15.34 7.32 15 8 C9.52067211 6.45454854 4.88570819 3.84456788 0 1 C0 0.67 0 0.34 0 0 Z " fill="#04515E" transform="translate(1469,1699)"/>
<path d="M0 0 C7.62575844 1.03987615 10.35847827 3.06916668 15 9 C12.69 8.34 10.38 7.68 8 7 C8 6.01 8 5.02 8 4 C7.236875 3.896875 6.47375 3.79375 5.6875 3.6875 C2.82940576 2.95635961 1.84257115 2.23048087 0 0 Z " fill="#03434D" transform="translate(1385,1650)"/>
<path d="M0 0 C0.99 0.495 0.99 0.495 2 1 C2 1.99 2 2.98 2 4 C2.66 4 3.32 4 4 4 C4.28875 4.928125 4.5775 5.85625 4.875 6.8125 C5.8875 10.09791667 5.8875 10.09791667 8 13 C7.625 15.1875 7.625 15.1875 7 17 C6.01330241 15.10807525 5.0359398 13.21128022 4.0625 11.3125 C3.51722656 10.25675781 2.97195313 9.20101563 2.41015625 8.11328125 C1.1529424 5.33765953 0.43930431 2.99727874 0 0 Z " fill="#033E48" transform="translate(1651,1657)"/>
<path d="M0 0 C4.35453922 0.25614937 6.49609768 0.57277847 9.875 3.4375 C12 6 12 6 13 8 C10.69 7.34 8.38 6.68 6 6 C6 5.01 6 4.02 6 3 C5.195625 2.87625 4.39125 2.7525 3.5625 2.625 C2.716875 2.41875 1.87125 2.2125 1 2 C0.67 1.34 0.34 0.68 0 0 Z " fill="#034651" transform="translate(1539,1739)"/>
<path d="M0 0 C2.85818883 2.47989913 4.19893393 5.13646878 5.75 8.5625 C6.19859375 9.53316406 6.6471875 10.50382812 7.109375 11.50390625 C7.40328125 12.32761719 7.6971875 13.15132812 8 14 C7.67 14.66 7.34 15.32 7 16 C6.01246936 14.27559635 5.03531194 12.54524974 4.0625 10.8125 C3.24458984 9.36810547 3.24458984 9.36810547 2.41015625 7.89453125 C1.09420667 5.19337158 0.42698113 2.95643899 0 0 Z " fill="#034752" transform="translate(1639,1634)"/>
<path d="M0 0 C0.66 0 1.32 0 2 0 C2 0.66 2 1.32 2 2 C3.11375 2.0825 4.2275 2.165 5.375 2.25 C6.57125 2.4975 7.7675 2.745 9 3 C10.3125 5 10.3125 5 11 7 C11.66 7.33 12.32 7.66 13 8 C12.01 8 11.02 8 10 8 C10 7.34 10 6.68 10 6 C8.68 5.67 7.36 5.34 6 5 C6 4.34 6 3.68 6 3 C4.35 3 2.7 3 1 3 C0.67 2.01 0.34 1.02 0 0 Z " fill="#033B44" transform="translate(1449,1687)"/>
<path d="M0 0 C4.1666604 0.47348414 6.92884715 1.04696841 10 4 C10 4.66 10 5.32 10 6 C11.32 6.33 12.64 6.66 14 7 C11.75 7.25 11.75 7.25 9 7 C7.62437146 5.71034824 6.29233607 4.37310707 5 3 C2.36777038 1.74563813 2.36777038 1.74563813 0 1 C0 0.67 0 0.34 0 0 Z " fill="#045B69" transform="translate(1645,1800)"/>
<path d="M0 0 C5.26170694 1.41167747 8.72171358 3.74850232 13 7 C11 8 11 8 8.4375 7.1875 C6 6 6 6 5 4 C3.34051852 2.98812105 1.67419438 1.9873454 0 1 C0 0.67 0 0.34 0 0 Z " fill="#023037" transform="translate(1525,1731)"/>
<path d="M0 0 C2.475 0.495 2.475 0.495 5 1 C5 1.99 5 2.98 5 4 C6.65 4 8.3 4 10 4 C10 4.66 10 5.32 10 6 C10.99 6.33 11.98 6.66 13 7 C11.68 7 10.36 7 9 7 C9 6.34 9 5.68 9 5 C8.2575 5.103125 7.515 5.20625 6.75 5.3125 C4 5 4 5 1.6875 2.5 C1.130625 1.675 0.57375 0.85 0 0 Z " fill="#04515E" transform="translate(1442,1682)"/>
<path d="M0 0 C3.12290635 0.48578543 5.99580359 0.9986012 9 2 C9.6875 4.0625 9.6875 4.0625 10 6 C6.66666667 4.33333333 3.33333333 2.66666667 0 1 C0 0.67 0 0.34 0 0 Z " fill="#034A56" transform="translate(1566,1755)"/>
<path d="M0 0 C3.09592835 3.5087188 4.74194623 6.49197399 6 11 C4 9.1875 4 9.1875 2 7 C2 6.01 2 5.02 2 4 C1.34 4 0.68 4 0 4 C0 2.68 0 1.36 0 0 Z " fill="#044C58" transform="translate(1716,1788)"/>
<path d="M0 0 C3.17379466 1.58689733 4.78370667 4.75431117 6 8 C5.61328125 10.23046875 5.61328125 10.23046875 5 12 C4.16180842 10.37750059 3.3295884 8.75191503 2.5 7.125 C2.0359375 6.22007813 1.571875 5.31515625 1.09375 4.3828125 C0 2 0 2 0 0 Z " fill="#033F49" transform="translate(1623,1602)"/>
<path d="M0 0 C4.12797305 0.60705486 7.37438822 1.93999331 11 4 C11.33 4.66 11.66 5.32 12 6 C9.03 5.01 6.06 4.02 3 3 C3 2.34 3 1.68 3 1 C2.01 0.67 1.02 0.34 0 0 Z " fill="#04515E" transform="translate(1285,1592)"/>
<path d="M0 0 C3.12290635 0.48578543 5.99580359 0.9986012 9 2 C8.67 2.99 8.34 3.98 8 5 C5.36 3.68 2.72 2.36 0 1 C0 0.67 0 0.34 0 0 Z " fill="#044F5C" transform="translate(1694,1829)"/>
<path d="M0 0 C2.475 0.495 2.475 0.495 5 1 C5 1.66 5 2.32 5 3 C6.32 3.66 7.64 4.32 9 5 C5.39222485 5 3.93704456 4.0095568 1 2 C0.67 1.34 0.34 0.68 0 0 Z " fill="#044D59" transform="translate(1685,1823)"/>
<path d="M0 0 C3.72433382 1.2125738 7.37802806 2.50859979 11 4 C10.67 4.66 10.34 5.32 10 6 C8.02 5.34 6.04 4.68 4 4 C4 3.34 4 2.68 4 2 C2.68 1.67 1.36 1.34 0 1 C0 0.67 0 0.34 0 0 Z " fill="#045562" transform="translate(1621,1786)"/>
<path d="M0 0 C3.12290635 0.48578543 5.99580359 0.9986012 9 2 C8.67 2.99 8.34 3.98 8 5 C5.36 3.68 2.72 2.36 0 1 C0 0.67 0 0.34 0 0 Z " fill="#034C58" transform="translate(1509,1722)"/>
<path d="M0 0 C2.31 0.33 4.62 0.66 7 1 C7.33 2.32 7.66 3.64 8 5 C4.5625 4.1875 4.5625 4.1875 1 3 C0.67 2.01 0.34 1.02 0 0 Z " fill="#03424D" transform="translate(1734,1852)"/>
<path d="M0 0 C2.475 0.495 2.475 0.495 5 1 C5 1.66 5 2.32 5 3 C5.639375 3.12375 6.27875 3.2475 6.9375 3.375 C7.618125 3.58125 8.29875 3.7875 9 4 C9.33 4.66 9.66 5.32 10 6 C5.56909529 4.79157144 3.01887244 3.48331435 0 0 Z " fill="#04525F" transform="translate(1324,1614)"/>
</svg>
